<svg xmlns="http://www.w3.org/2000/svg" viewBox="0 0 1200 630" width="1200" height="630">
  <defs>
    <linearGradient id="bg" x1="0" y1="0" x2="1" y2="1">
      <stop offset="0" stop-color="#1c1e23"/>
      <stop offset="1" stop-color="#2a2d34"/>
    </linearGradient>
  </defs>
  <rect width="1200" height="630" fill="url(#bg)"/>
  <rect x="64" y="64" width="72" height="72" rx="16" fill="#1c1e23" stroke="#3a3d44"/>
  <path d="M84 116h32M88 124h24M100 78a16 16 0 0 0-9 29c1.4 1.1 2.3 3 2.3 4.8V116h13.4v-4.2c0-1.8.9-3.7 2.3-4.8A16 16 0 0 0 100 78Z"
        fill="none" stroke="#b08a52" stroke-width="3.5" stroke-linecap="round" stroke-linejoin="round"/>
  <text x="156" y="118" font-family="Georgia, serif" font-size="34" fill="#ffffff" font-weight="600">Cleveland Smart Home Solutions</text>
  <text x="64" y="320" font-family="Georgia, serif" font-size="92" fill="#ffffff" font-weight="600">Smart Living,</text>
  <text x="64" y="420" font-family="Georgia, serif" font-size="92" fill="#b08a52" font-weight="600" font-style="italic">Done Simply.</text>
  <text x="64" y="510" font-family="Arial, sans-serif" font-size="34" fill="#c7c4bd">Premium smart home installs across Northeast Ohio —</text>
  <text x="64" y="556" font-family="Arial, sans-serif" font-size="34" fill="#c7c4bd">no major construction, no mess, no stress.</text>
</svg>
